<svg width="6922" height="3478" viewBox="0 0 6922 3478" fill="none" xmlns="http://www.w3.org/2000/svg">
<path d="M95.9023 1933.09H463.902V2045.09H211.902V2178.69H430.302V2290.69H211.902V2521.89H95.9023V1933.09ZM539.59 2228.29C539.59 2187.76 547.323 2149.36 562.79 2113.09C578.257 2076.82 599.59 2044.82 626.79 2017.09C654.523 1988.82 686.523 1966.69 722.79 1950.69C759.057 1934.69 797.99 1926.69 839.59 1926.69C880.657 1926.69 919.323 1934.69 955.59 1950.69C991.857 1966.69 1023.86 1988.82 1051.59 2017.09C1079.86 2044.82 1101.72 2076.82 1117.19 2113.09C1133.19 2149.36 1141.19 2187.76 1141.19 2228.29C1141.19 2269.89 1133.19 2308.82 1117.19 2345.09C1101.72 2381.36 1079.86 2413.36 1051.59 2441.09C1023.86 2468.29 991.857 2489.62 955.59 2505.09C919.323 2520.56 880.657 2528.29 839.59 2528.29C797.99 2528.29 759.057 2520.56 722.79 2505.09C686.523 2489.62 654.523 2468.29 626.79 2441.09C599.59 2413.36 578.257 2381.36 562.79 2345.09C547.323 2308.82 539.59 2269.89 539.59 2228.29ZM659.59 2228.29C659.59 2254.42 664.123 2278.96 673.19 2301.89C682.79 2324.29 695.857 2344.29 712.39 2361.89C729.457 2378.96 748.923 2392.29 770.79 2401.89C793.19 2411.49 817.457 2416.29 843.59 2416.29C868.657 2416.29 891.857 2411.49 913.19 2401.89C935.057 2392.29 953.99 2378.96 969.99 2361.89C985.99 2344.29 998.523 2324.29 1007.59 2301.89C1016.66 2278.96 1021.19 2254.42 1021.19 2228.29C1021.19 2201.62 1016.39 2176.82 1006.79 2153.89C997.723 2130.96 984.923 2110.96 968.39 2093.89C952.39 2076.29 933.457 2062.69 911.59 2053.09C889.723 2043.49 865.99 2038.69 840.39 2038.69C814.79 2038.69 791.057 2043.49 769.19 2053.09C747.323 2062.69 728.123 2076.29 711.59 2093.89C695.057 2110.96 682.257 2130.96 673.19 2153.89C664.123 2176.82 659.59 2201.62 659.59 2228.29ZM1435.24 1933.09C1472.04 1933.09 1504.84 1937.89 1533.64 1947.49C1562.44 1956.56 1586.44 1969.89 1605.64 1987.49C1625.37 2004.56 1640.31 2025.36 1650.44 2049.89C1660.57 2073.89 1665.64 2101.09 1665.64 2131.49C1665.64 2155.49 1661.91 2179.49 1654.44 2203.49C1647.51 2227.49 1635.77 2249.36 1619.24 2269.09C1603.24 2288.82 1581.91 2304.82 1555.24 2317.09C1528.57 2328.82 1495.51 2334.69 1456.04 2334.69H1372.84V2521.89H1256.84V1933.09H1435.24ZM1455.24 2222.69C1472.84 2222.69 1487.51 2219.76 1499.24 2213.89C1510.97 2208.02 1520.04 2200.56 1526.44 2191.49C1533.37 2182.42 1538.17 2173.09 1540.84 2163.49C1544.04 2153.36 1545.64 2144.02 1545.64 2135.49C1545.64 2129.09 1544.57 2121.09 1542.44 2111.49C1540.84 2101.36 1537.11 2091.22 1531.24 2081.09C1525.37 2070.96 1516.31 2062.42 1504.04 2055.49C1492.31 2048.56 1476.31 2045.09 1456.04 2045.09H1372.84V2222.69H1455.24ZM1564.04 2294.69L1709.64 2521.89H1574.44L1425.64 2297.89L1564.04 2294.69ZM2332.48 2545.89L1886.08 2142.69L1920.48 2161.89L1922.88 2521.89H1805.28V1909.89H1810.08L2246.88 2311.49L2221.28 2300.29L2218.88 1933.09H2335.68V2545.89H2332.48ZM2451.31 2228.29C2451.31 2187.76 2459.04 2149.36 2474.51 2113.09C2489.98 2076.82 2511.31 2044.82 2538.51 2017.09C2566.24 1988.82 2598.24 1966.69 2634.51 1950.69C2670.78 1934.69 2709.71 1926.69 2751.31 1926.69C2792.38 1926.69 2831.04 1934.69 2867.31 1950.69C2903.58 1966.69 2935.58 1988.82 2963.31 2017.09C2991.58 2044.82 3013.44 2076.82 3028.91 2113.09C3044.91 2149.36 3052.91 2187.76 3052.91 2228.29C3052.91 2269.89 3044.91 2308.82 3028.91 2345.09C3013.44 2381.36 2991.58 2413.36 2963.31 2441.09C2935.58 2468.29 2903.58 2489.62 2867.31 2505.09C2831.04 2520.56 2792.38 2528.29 2751.31 2528.29C2709.71 2528.29 2670.78 2520.56 2634.51 2505.09C2598.24 2489.62 2566.24 2468.29 2538.51 2441.09C2511.31 2413.36 2489.98 2381.36 2474.51 2345.09C2459.04 2308.82 2451.31 2269.89 2451.31 2228.29ZM2571.31 2228.29C2571.31 2254.42 2575.84 2278.96 2584.91 2301.89C2594.51 2324.29 2607.58 2344.29 2624.11 2361.89C2641.18 2378.96 2660.64 2392.29 2682.51 2401.89C2704.91 2411.49 2729.18 2416.29 2755.31 2416.29C2780.38 2416.29 2803.58 2411.49 2824.91 2401.89C2846.78 2392.29 2865.71 2378.96 2881.71 2361.89C2897.71 2344.29 2910.24 2324.29 2919.31 2301.89C2928.38 2278.96 2932.91 2254.42 2932.91 2228.29C2932.91 2201.62 2928.11 2176.82 2918.51 2153.89C2909.44 2130.96 2896.64 2110.96 2880.11 2093.89C2864.11 2076.29 2845.18 2062.69 2823.31 2053.09C2801.44 2043.49 2777.71 2038.69 2752.11 2038.69C2726.51 2038.69 2702.78 2043.49 2680.91 2053.09C2659.04 2062.69 2639.84 2076.29 2623.31 2093.89C2606.78 2110.96 2593.98 2130.96 2584.91 2153.89C2575.84 2176.82 2571.31 2201.62 2571.31 2228.29ZM3428.71 2521.89V1933.09H3604.71C3663.91 1933.09 3714.31 1941.89 3755.91 1959.49C3797.51 1977.09 3830.85 2000.56 3855.91 2029.89C3881.51 2059.22 3900.18 2092.02 3911.91 2128.29C3923.65 2164.56 3929.51 2201.09 3929.51 2237.89C3929.51 2281.62 3921.51 2321.09 3905.51 2356.29C3890.05 2390.96 3868.71 2420.82 3841.51 2445.89C3814.31 2470.42 3782.85 2489.36 3747.11 2502.69C3711.38 2515.49 3673.51 2521.89 3633.51 2521.89H3428.71ZM3544.71 2409.89H3613.51C3642.85 2409.89 3669.51 2406.16 3693.51 2398.69C3717.51 2390.69 3738.05 2379.22 3755.11 2364.29C3772.71 2349.36 3786.05 2330.69 3795.11 2308.29C3804.71 2285.36 3809.51 2259.22 3809.51 2229.89C3809.51 2191.49 3803.11 2160.29 3790.31 2136.29C3778.05 2111.76 3762.58 2092.82 3743.91 2079.49C3725.78 2066.16 3707.11 2057.09 3687.91 2052.29C3668.71 2046.96 3652.45 2044.29 3639.11 2044.29H3544.71V2409.89ZM4045.9 1933.09H4447.5V2045.09H4161.9V2170.69H4414.7V2282.69H4161.9V2409.89H4458.7V2521.89H4045.9V1933.09ZM5280.47 2473.09C5274.07 2478.42 5262.07 2485.62 5244.47 2494.69C5227.4 2503.76 5206.34 2511.76 5181.27 2518.69C5156.2 2525.62 5128.47 2528.82 5098.07 2528.29C5051.67 2527.22 5010.07 2518.96 4973.27 2503.49C4937 2487.49 4906.07 2465.89 4880.47 2438.69C4855.4 2411.49 4836.2 2380.29 4822.87 2345.09C4809.54 2309.89 4802.87 2272.29 4802.87 2232.29C4802.87 2187.49 4809.54 2146.42 4822.87 2109.09C4836.74 2071.76 4856.2 2039.49 4881.27 2012.29C4906.87 1985.09 4937.27 1964.02 4972.47 1949.09C5007.67 1934.16 5046.6 1926.69 5089.27 1926.69C5128.74 1926.69 5163.67 1932.02 5194.07 1942.69C5224.47 1953.36 5249.27 1964.82 5268.47 1977.09L5222.87 2086.69C5209.54 2076.56 5191.67 2066.16 5169.27 2055.49C5147.4 2044.29 5122.07 2038.69 5093.27 2038.69C5070.87 2038.69 5049.27 2043.49 5028.47 2053.09C5008.2 2062.16 4990.07 2075.22 4974.07 2092.29C4958.6 2109.36 4946.34 2129.36 4937.27 2152.29C4928.2 2174.69 4923.67 2199.22 4923.67 2225.89C4923.67 2254.16 4927.67 2280.02 4935.67 2303.49C4944.2 2326.96 4956.2 2347.22 4971.67 2364.29C4987.14 2380.82 5005.54 2393.62 5026.87 2402.69C5048.74 2411.76 5073.27 2416.29 5100.47 2416.29C5131.94 2416.29 5158.87 2411.22 5181.27 2401.09C5203.67 2390.96 5220.74 2380.29 5232.47 2369.09L5280.47 2473.09ZM5330.28 2521.89L5595.88 1909.89H5602.28L5867.88 2521.89H5733.48L5563.88 2091.49L5647.88 2033.89L5444.68 2521.89H5330.28ZM5511.88 2309.09H5688.68L5729.48 2406.69H5475.88L5511.88 2309.09ZM6268.11 2075.49C6245.71 2063.22 6222.78 2053.09 6199.31 2045.09C6176.38 2037.09 6154.78 2033.09 6134.51 2033.09C6109.45 2033.09 6089.71 2038.16 6075.31 2048.29C6060.91 2058.42 6053.71 2073.62 6053.71 2093.89C6053.71 2107.76 6059.05 2120.29 6069.71 2131.49C6080.91 2142.16 6095.05 2151.76 6112.11 2160.29C6129.71 2168.82 6147.85 2176.56 6166.51 2183.49C6183.58 2189.89 6200.38 2197.62 6216.91 2206.69C6233.98 2215.22 6249.18 2226.16 6262.51 2239.49C6275.85 2252.29 6286.51 2268.56 6294.51 2288.29C6302.51 2307.49 6306.51 2331.22 6306.51 2359.49C6306.51 2389.36 6298.78 2417.09 6283.31 2442.69C6267.85 2468.29 6245.18 2489.09 6215.31 2505.09C6185.45 2520.56 6148.65 2528.29 6104.91 2528.29C6082.51 2528.29 6059.58 2526.16 6036.11 2521.89C6013.18 2517.09 5990.51 2510.16 5968.11 2501.09C5945.71 2491.49 5924.11 2479.49 5903.31 2465.09L5954.51 2374.69C5968.38 2384.82 5983.31 2393.89 5999.31 2401.89C6015.85 2409.36 6032.38 2415.22 6048.91 2419.49C6065.45 2423.76 6080.65 2425.89 6094.51 2425.89C6108.38 2425.89 6122.25 2424.02 6136.11 2420.29C6150.51 2416.02 6162.25 2409.09 6171.31 2399.49C6180.91 2389.89 6185.71 2376.56 6185.71 2359.49C6185.71 2347.76 6181.71 2337.09 6173.71 2327.49C6166.25 2317.89 6155.85 2309.09 6142.51 2301.09C6129.71 2293.09 6115.58 2286.16 6100.11 2280.29C6081.98 2273.36 6063.31 2265.36 6044.11 2256.29C6024.91 2247.22 6006.78 2236.29 5989.71 2223.49C5973.18 2210.16 5959.58 2193.89 5948.91 2174.69C5938.78 2154.96 5933.71 2130.96 5933.71 2102.69C5933.71 2068.56 5941.18 2038.96 5956.11 2013.89C5971.58 1988.82 5993.18 1969.09 6020.91 1954.69C6048.65 1939.76 6080.65 1931.49 6116.91 1929.89C6164.38 1929.89 6202.78 1935.49 6232.11 1946.69C6261.98 1957.89 6288.65 1971.22 6312.11 1986.69L6268.11 2075.49ZM6353.72 2521.89L6619.32 1909.89H6625.72L6891.32 2521.89H6756.92L6587.32 2091.49L6671.32 2033.89L6468.12 2521.89H6353.72ZM6535.32 2309.09H6712.12L6752.92 2406.69H6499.32L6535.32 2309.09Z" fill="#D8B281"/>
<path d="M935.345 2944.26C957.464 2944.26 976.364 2948.04 992.044 2955.6C1007.72 2962.88 1019.76 2973.52 1028.16 2987.52C1036.84 3001.52 1041.18 3018.46 1041.18 3038.34C1041.18 3050.38 1039.36 3062.28 1035.72 3074.04C1032.08 3085.52 1026.2 3096.02 1018.08 3105.54C1010.24 3114.78 999.885 3122.2 987.004 3127.8C974.124 3133.4 958.444 3136.2 939.965 3136.2H895.024V3247.92H854.284V2944.26H935.345ZM939.544 3097.14C951.585 3097.14 961.525 3095.18 969.365 3091.26C977.205 3087.34 983.365 3082.44 987.845 3076.56C992.325 3070.4 995.545 3063.96 997.505 3057.24C999.465 3050.52 1000.44 3044.5 1000.44 3039.18C1000.44 3033.02 999.465 3026.72 997.505 3020.28C995.545 3013.56 992.185 3007.54 987.425 3002.22C982.945 2996.62 976.925 2992.14 969.365 2988.78C962.085 2985.14 952.985 2983.32 942.065 2983.32H895.024V3097.14H939.544ZM1044.71 3247.92L1177.43 2931.66H1179.95L1312.25 3247.92H1265.63L1166.51 2995.5L1195.49 2976.6L1084.61 3247.92H1044.71ZM1122.41 3132.84H1235.39L1248.83 3168.12H1110.65L1122.41 3132.84ZM1210.61 2906.04C1201.65 2906.04 1194.23 2904.08 1188.35 2900.16C1182.75 2895.96 1177.43 2891.62 1172.39 2887.14C1169.03 2884.06 1165.67 2881.26 1162.31 2878.74C1158.95 2875.94 1155.17 2874.54 1150.97 2874.54C1147.61 2874.54 1144.53 2875.94 1141.73 2878.74C1139.21 2881.26 1137.25 2884.9 1135.85 2889.66C1134.45 2894.14 1133.75 2899.74 1133.75 2906.46L1112.75 2906.04C1111.91 2895.12 1113.03 2885.32 1116.11 2876.64C1119.47 2867.96 1124.23 2861.1 1130.39 2856.06C1136.83 2851.02 1144.39 2848.5 1153.07 2848.5C1160.35 2848.5 1166.65 2850.46 1171.97 2854.38C1177.29 2858.3 1182.19 2862.36 1186.67 2866.56C1190.59 2870.48 1194.37 2873.98 1198.01 2877.06C1201.65 2879.86 1205.57 2881.26 1209.77 2881.26C1215.37 2881.26 1219.29 2878.32 1221.53 2872.44C1224.05 2866.28 1225.31 2858.16 1225.31 2848.08L1246.31 2848.5C1247.43 2859.98 1246.45 2870.06 1243.37 2878.74C1240.57 2887.42 1236.23 2894.14 1230.35 2898.9C1224.47 2903.66 1217.89 2906.04 1210.61 2906.04ZM1369.44 2944.26H1566.84V2983.32H1410.18V3075.72H1550.04V3114.78H1410.18V3208.86H1572.72V3247.92H1369.44V2944.26ZM1800.51 2998.44C1790.15 2993.12 1778.81 2988.5 1766.49 2984.58C1754.17 2980.66 1742.13 2978.7 1730.37 2978.7C1714.13 2978.7 1701.11 2982.48 1691.31 2990.04C1681.79 2997.6 1677.03 3007.68 1677.03 3020.28C1677.03 3029.8 1680.11 3037.92 1686.27 3044.64C1692.43 3051.08 1700.55 3056.68 1710.63 3061.44C1720.71 3066.2 1731.21 3070.68 1742.13 3074.88C1751.65 3078.52 1761.03 3082.58 1770.27 3087.06C1779.51 3091.54 1787.77 3097.14 1795.05 3103.86C1802.61 3110.58 1808.49 3118.84 1812.69 3128.64C1817.17 3138.44 1819.41 3150.62 1819.41 3165.18C1819.41 3181.14 1815.35 3195.7 1807.23 3208.86C1799.39 3222.02 1788.05 3232.38 1773.21 3239.94C1758.37 3247.5 1740.73 3251.28 1720.29 3251.28C1706.85 3251.28 1693.97 3249.74 1681.65 3246.66C1669.61 3243.58 1658.41 3239.66 1648.05 3234.9C1637.69 3229.86 1628.45 3224.68 1620.33 3219.36L1638.39 3187.44C1645.11 3192.2 1652.81 3196.82 1661.49 3201.3C1670.17 3205.5 1679.27 3209 1688.79 3211.8C1698.31 3214.32 1707.55 3215.58 1716.51 3215.58C1726.03 3215.58 1735.41 3213.9 1744.65 3210.54C1754.17 3206.9 1762.01 3201.44 1768.17 3194.16C1774.33 3186.88 1777.41 3177.22 1777.41 3165.18C1777.41 3154.82 1774.61 3146.28 1769.01 3139.56C1763.69 3132.56 1756.55 3126.68 1747.59 3121.92C1738.63 3116.88 1729.11 3112.4 1719.03 3108.48C1709.51 3104.84 1699.85 3100.92 1690.05 3096.72C1680.25 3092.24 1671.15 3086.92 1662.75 3080.76C1654.35 3074.32 1647.63 3066.48 1642.59 3057.24C1637.55 3048 1635.03 3036.8 1635.03 3023.64C1635.03 3007.68 1638.81 2993.82 1646.37 2982.06C1654.21 2970.02 1664.85 2960.64 1678.29 2953.92C1691.73 2946.92 1707.13 2943.14 1724.49 2942.58C1744.09 2942.58 1761.31 2944.96 1776.15 2949.72C1791.27 2954.48 1804.57 2960.36 1816.05 2967.36L1800.51 2998.44ZM2020.77 2944.26H2218.17V2983.32H2061.51V3075.72H2201.37V3114.78H2061.51V3208.86H2224.05V3247.92H2020.77V2944.26ZM2427.64 3247.92V2944.26H2510.38C2540.34 2944.26 2565.82 2948.88 2586.82 2958.12C2608.1 2967.36 2625.18 2979.54 2638.06 2994.66C2650.94 3009.78 2660.32 3026.58 2666.2 3045.06C2672.36 3063.26 2675.44 3081.46 2675.44 3099.66C2675.44 3122.62 2671.38 3143.2 2663.26 3161.4C2655.42 3179.6 2644.5 3195.14 2630.5 3208.02C2616.5 3220.9 2600.4 3230.84 2582.2 3237.84C2564.28 3244.56 2545.24 3247.92 2525.08 3247.92H2427.64ZM2468.38 3208.86H2517.1C2533.9 3208.86 2549.3 3206.34 2563.3 3201.3C2577.58 3196.26 2589.9 3188.98 2600.26 3179.46C2610.9 3169.94 2619.16 3158.32 2625.04 3144.6C2630.92 3130.6 2633.86 3114.78 2633.86 3097.14C2633.86 3078.38 2630.78 3062 2624.62 3048C2618.46 3033.72 2610.06 3021.82 2599.42 3012.3C2588.78 3002.78 2576.74 2995.64 2563.3 2990.88C2549.86 2985.84 2535.72 2983.32 2520.88 2983.32H2468.38V3208.86ZM2724.97 3096.3C2724.97 3075.3 2728.89 3055.56 2736.73 3037.08C2744.85 3018.32 2756.05 3001.8 2770.33 2987.52C2784.61 2972.96 2800.99 2961.62 2819.47 2953.5C2838.23 2945.1 2858.39 2940.9 2879.95 2940.9C2901.23 2940.9 2921.11 2945.1 2939.59 2953.5C2958.35 2961.62 2974.87 2972.96 2989.15 2987.52C3003.71 3001.8 3015.05 3018.32 3023.17 3037.08C3031.29 3055.56 3035.35 3075.3 3035.35 3096.3C3035.35 3117.86 3031.29 3138.02 3023.17 3156.78C3015.05 3175.54 3003.71 3192.06 2989.15 3206.34C2974.87 3220.34 2958.35 3231.4 2939.59 3239.52C2921.11 3247.36 2901.23 3251.28 2879.95 3251.28C2858.39 3251.28 2838.23 3247.36 2819.47 3239.52C2800.99 3231.68 2784.61 3220.76 2770.33 3206.76C2756.05 3192.76 2744.85 3176.38 2736.73 3157.62C2728.89 3138.86 2724.97 3118.42 2724.97 3096.3ZM2766.97 3096.72C2766.97 3112.68 2769.91 3127.66 2775.79 3141.66C2781.67 3155.38 2789.79 3167.56 2800.15 3178.2C2810.51 3188.84 2822.55 3197.24 2836.27 3203.4C2849.99 3209.28 2864.83 3212.22 2880.79 3212.22C2896.47 3212.22 2911.17 3209.28 2924.89 3203.4C2938.61 3197.24 2950.51 3188.84 2960.59 3178.2C2970.67 3167.56 2978.65 3155.38 2984.53 3141.66C2990.41 3127.66 2993.35 3112.54 2993.35 3096.3C2993.35 3080.34 2990.41 3065.36 2984.53 3051.36C2978.65 3037.08 2970.53 3024.62 2960.17 3013.98C2949.81 3003.34 2937.77 2995.08 2924.05 2989.2C2910.33 2983.04 2895.63 2979.96 2879.95 2979.96C2863.99 2979.96 2849.15 2983.04 2835.43 2989.2C2821.71 2995.36 2809.67 3003.76 2799.31 3014.4C2788.95 3025.04 2780.97 3037.5 2775.37 3051.78C2769.77 3065.78 2766.97 3080.76 2766.97 3096.72ZM3327.01 3225.24C3321.97 3228.6 3315.11 3232.38 3306.43 3236.58C3297.75 3240.78 3287.53 3244.28 3275.77 3247.08C3264.29 3249.88 3251.69 3251.28 3237.97 3251.28C3214.45 3251 3193.17 3246.8 3174.13 3238.68C3155.37 3230.56 3139.41 3219.5 3126.25 3205.5C3113.09 3191.5 3102.87 3175.4 3095.59 3157.2C3088.59 3138.72 3085.09 3119.12 3085.09 3098.4C3085.09 3075.72 3088.73 3054.86 3096.01 3035.82C3103.57 3016.5 3114.07 2999.84 3127.51 2985.84C3140.95 2971.56 3156.77 2960.5 3174.97 2952.66C3193.45 2944.82 3213.61 2940.9 3235.45 2940.9C3253.65 2940.9 3270.17 2943.42 3285.01 2948.46C3299.85 2953.22 3312.59 2958.96 3323.23 2965.68L3306.85 3003.48C3298.45 2997.88 3288.23 2992.56 3276.19 2987.52C3264.43 2982.48 3251.27 2979.96 3236.71 2979.96C3221.87 2979.96 3207.87 2982.9 3194.71 2988.78C3181.55 2994.66 3169.93 3002.92 3159.85 3013.56C3149.77 3024.2 3141.79 3036.66 3135.91 3050.94C3130.31 3064.94 3127.51 3080.06 3127.51 3096.3C3127.51 3112.82 3130.03 3128.22 3135.07 3142.5C3140.39 3156.5 3147.81 3168.68 3157.33 3179.04C3167.13 3189.4 3178.89 3197.52 3192.61 3203.4C3206.33 3209.28 3221.73 3212.22 3238.81 3212.22C3254.21 3212.22 3267.93 3209.84 3279.97 3205.08C3292.01 3200.32 3301.95 3195 3309.79 3189.12L3327.01 3225.24ZM3395.61 2944.26H3593.01V2983.32H3436.35V3075.72H3576.21V3114.78H3436.35V3208.86H3598.89V3247.92H3395.61V2944.26ZM3826.68 2998.44C3816.32 2993.12 3804.98 2988.5 3792.66 2984.58C3780.34 2980.66 3768.3 2978.7 3756.54 2978.7C3740.3 2978.7 3727.28 2982.48 3717.48 2990.04C3707.96 2997.6 3703.2 3007.68 3703.2 3020.28C3703.2 3029.8 3706.28 3037.92 3712.44 3044.64C3718.6 3051.08 3726.72 3056.68 3736.8 3061.44C3746.88 3066.2 3757.38 3070.68 3768.3 3074.88C3777.82 3078.52 3787.2 3082.58 3796.44 3087.06C3805.68 3091.54 3813.94 3097.14 3821.22 3103.86C3828.78 3110.58 3834.66 3118.84 3838.86 3128.64C3843.34 3138.44 3845.58 3150.62 3845.58 3165.18C3845.58 3181.14 3841.52 3195.7 3833.4 3208.86C3825.56 3222.02 3814.22 3232.38 3799.38 3239.94C3784.54 3247.5 3766.9 3251.28 3746.46 3251.28C3733.02 3251.28 3720.14 3249.74 3707.82 3246.66C3695.78 3243.58 3684.58 3239.66 3674.22 3234.9C3663.86 3229.86 3654.62 3224.68 3646.5 3219.36L3664.56 3187.44C3671.28 3192.2 3678.98 3196.82 3687.66 3201.3C3696.34 3205.5 3705.44 3209 3714.96 3211.8C3724.48 3214.32 3733.72 3215.58 3742.68 3215.58C3752.2 3215.58 3761.58 3213.9 3770.82 3210.54C3780.34 3206.9 3788.18 3201.44 3794.34 3194.16C3800.5 3186.88 3803.58 3177.22 3803.58 3165.18C3803.58 3154.82 3800.78 3146.28 3795.18 3139.56C3789.86 3132.56 3782.72 3126.68 3773.76 3121.92C3764.8 3116.88 3755.28 3112.4 3745.2 3108.48C3735.68 3104.84 3726.02 3100.92 3716.22 3096.72C3706.42 3092.24 3697.32 3086.92 3688.92 3080.76C3680.52 3074.32 3673.8 3066.48 3668.76 3057.24C3663.72 3048 3661.2 3036.8 3661.2 3023.64C3661.2 3007.68 3664.98 2993.82 3672.54 2982.06C3680.38 2970.02 3691.02 2960.64 3704.46 2953.92C3717.9 2946.92 3733.3 2943.14 3750.66 2942.58C3770.26 2942.58 3787.48 2944.96 3802.32 2949.72C3817.44 2954.48 3830.74 2960.36 3842.22 2967.36L3826.68 2998.44ZM4269.96 3225.24C4264.92 3228.6 4258.06 3232.38 4249.38 3236.58C4240.7 3240.78 4230.48 3244.28 4218.72 3247.08C4207.24 3249.88 4194.64 3251.28 4180.92 3251.28C4157.4 3251 4136.12 3246.8 4117.08 3238.68C4098.32 3230.56 4082.36 3219.5 4069.2 3205.5C4056.04 3191.5 4045.82 3175.4 4038.54 3157.2C4031.54 3138.72 4028.04 3119.12 4028.04 3098.4C4028.04 3075.72 4031.68 3054.86 4038.96 3035.82C4046.52 3016.5 4057.02 2999.84 4070.46 2985.84C4083.9 2971.56 4099.72 2960.5 4117.92 2952.66C4136.4 2944.82 4156.56 2940.9 4178.4 2940.9C4196.6 2940.9 4213.12 2943.42 4227.96 2948.46C4242.8 2953.22 4255.54 2958.96 4266.18 2965.68L4249.8 3003.48C4241.4 2997.88 4231.18 2992.56 4219.14 2987.52C4207.38 2982.48 4194.22 2979.96 4179.66 2979.96C4164.82 2979.96 4150.82 2982.9 4137.66 2988.78C4124.5 2994.66 4112.88 3002.92 4102.8 3013.56C4092.72 3024.2 4084.74 3036.66 4078.86 3050.94C4073.26 3064.94 4070.46 3080.06 4070.46 3096.3C4070.46 3112.82 4072.98 3128.22 4078.02 3142.5C4083.34 3156.5 4090.76 3168.68 4100.28 3179.04C4110.08 3189.4 4121.84 3197.52 4135.56 3203.4C4149.28 3209.28 4164.68 3212.22 4181.76 3212.22C4197.16 3212.22 4210.88 3209.84 4222.92 3205.08C4234.96 3200.32 4244.9 3195 4252.74 3189.12L4269.96 3225.24ZM4308.32 3247.92L4441.04 2931.66H4443.56L4575.86 3247.92H4529.24L4430.12 2995.5L4459.1 2976.6L4348.22 3247.92H4308.32ZM4386.02 3132.84H4499L4512.44 3168.12H4374.26L4386.02 3132.84ZM4790.13 2998.44C4779.77 2993.12 4768.43 2988.5 4756.11 2984.58C4743.79 2980.66 4731.75 2978.7 4719.99 2978.7C4703.75 2978.7 4690.73 2982.48 4680.93 2990.04C4671.41 2997.6 4666.65 3007.68 4666.65 3020.28C4666.65 3029.8 4669.73 3037.92 4675.89 3044.64C4682.05 3051.08 4690.17 3056.68 4700.25 3061.44C4710.33 3066.2 4720.83 3070.68 4731.75 3074.88C4741.27 3078.52 4750.65 3082.58 4759.89 3087.06C4769.13 3091.54 4777.39 3097.14 4784.67 3103.86C4792.23 3110.58 4798.11 3118.84 4802.31 3128.64C4806.79 3138.44 4809.03 3150.62 4809.03 3165.18C4809.03 3181.14 4804.97 3195.7 4796.85 3208.86C4789.01 3222.02 4777.67 3232.38 4762.83 3239.94C4747.99 3247.5 4730.35 3251.28 4709.91 3251.28C4696.47 3251.28 4683.59 3249.74 4671.27 3246.66C4659.23 3243.58 4648.03 3239.66 4637.67 3234.9C4627.31 3229.86 4618.07 3224.68 4609.95 3219.36L4628.01 3187.44C4634.73 3192.2 4642.43 3196.82 4651.11 3201.3C4659.79 3205.5 4668.89 3209 4678.41 3211.8C4687.93 3214.32 4697.17 3215.58 4706.13 3215.58C4715.65 3215.58 4725.03 3213.9 4734.27 3210.54C4743.79 3206.9 4751.63 3201.44 4757.79 3194.16C4763.95 3186.88 4767.03 3177.22 4767.03 3165.18C4767.03 3154.82 4764.23 3146.28 4758.63 3139.56C4753.31 3132.56 4746.17 3126.68 4737.21 3121.92C4728.25 3116.88 4718.73 3112.4 4708.65 3108.48C4699.13 3104.84 4689.47 3100.92 4679.67 3096.72C4669.87 3092.24 4660.77 3086.92 4652.37 3080.76C4643.97 3074.32 4637.25 3066.48 4632.21 3057.24C4627.17 3048 4624.65 3036.8 4624.65 3023.64C4624.65 3007.68 4628.43 2993.82 4635.99 2982.06C4643.83 2970.02 4654.47 2960.64 4667.91 2953.92C4681.35 2946.92 4696.75 2943.14 4714.11 2942.58C4733.71 2942.58 4750.93 2944.96 4765.77 2949.72C4780.89 2954.48 4794.19 2960.36 4805.67 2967.36L4790.13 2998.44ZM4877.51 2944.26H5074.91V2983.32H4918.25V3075.72H5058.11V3114.78H4918.25V3208.86H5080.79V3247.92H4877.51V2944.26ZM5151.49 2944.26H5192.23V3247.92H5151.49V2944.26ZM5360.1 2944.26C5375.5 2944.26 5389.64 2946.36 5402.52 2950.56C5415.68 2954.48 5427.02 2960.5 5436.54 2968.62C5446.34 2976.46 5453.9 2986.26 5459.22 2998.02C5464.82 3009.5 5467.62 3022.94 5467.62 3038.34C5467.62 3050.38 5465.8 3062.14 5462.16 3073.62C5458.8 3085.1 5453.06 3095.6 5444.94 3105.12C5436.82 3114.36 5426.18 3121.92 5413.02 3127.8C5400.14 3133.4 5384.18 3136.2 5365.14 3136.2H5320.2V3247.92H5279.46V2944.26H5360.1ZM5364.3 3097.14C5376.34 3097.14 5386.28 3095.32 5394.12 3091.68C5402.24 3088.04 5408.54 3083.42 5413.02 3077.82C5417.5 3071.94 5420.72 3065.64 5422.68 3058.92C5424.64 3052.2 5425.62 3045.9 5425.62 3040.02C5425.62 3033.86 5424.5 3027.56 5422.26 3021.12C5420.3 3014.4 5416.94 3008.24 5412.18 3002.64C5407.7 2997.04 5401.68 2992.42 5394.12 2988.78C5386.84 2985.14 5377.88 2983.32 5367.24 2983.32H5320.2V3097.14H5364.3ZM5414.28 3120.24L5493.66 3247.92H5446.62L5365.98 3121.5L5414.28 3120.24ZM5530.85 3096.3C5530.85 3075.3 5534.77 3055.56 5542.61 3037.08C5550.73 3018.32 5561.93 3001.8 5576.21 2987.52C5590.49 2972.96 5606.87 2961.62 5625.35 2953.5C5644.11 2945.1 5664.27 2940.9 5685.83 2940.9C5707.11 2940.9 5726.99 2945.1 5745.47 2953.5C5764.23 2961.62 5780.75 2972.96 5795.03 2987.52C5809.59 3001.8 5820.93 3018.32 5829.05 3037.08C5837.17 3055.56 5841.23 3075.3 5841.23 3096.3C5841.23 3117.86 5837.17 3138.02 5829.05 3156.78C5820.93 3175.54 5809.59 3192.06 5795.03 3206.34C5780.75 3220.34 5764.23 3231.4 5745.47 3239.52C5726.99 3247.36 5707.11 3251.28 5685.83 3251.28C5664.27 3251.28 5644.11 3247.36 5625.35 3239.52C5606.87 3231.68 5590.49 3220.76 5576.21 3206.76C5561.93 3192.76 5550.73 3176.38 5542.61 3157.62C5534.77 3138.86 5530.85 3118.42 5530.85 3096.3ZM5572.85 3096.72C5572.85 3112.68 5575.79 3127.66 5581.67 3141.66C5587.55 3155.38 5595.67 3167.56 5606.03 3178.2C5616.39 3188.84 5628.43 3197.24 5642.15 3203.4C5655.87 3209.28 5670.71 3212.22 5686.67 3212.22C5702.35 3212.22 5717.05 3209.28 5730.77 3203.4C5744.49 3197.24 5756.39 3188.84 5766.47 3178.2C5776.55 3167.56 5784.53 3155.38 5790.41 3141.66C5796.29 3127.66 5799.23 3112.54 5799.23 3096.3C5799.23 3080.34 5796.29 3065.36 5790.41 3051.36C5784.53 3037.08 5776.41 3024.62 5766.05 3013.98C5755.69 3003.34 5743.65 2995.08 5729.93 2989.2C5716.21 2983.04 5701.51 2979.96 5685.83 2979.96C5669.87 2979.96 5655.03 2983.04 5641.31 2989.2C5627.59 2995.36 5615.55 3003.76 5605.19 3014.4C5594.83 3025.04 5586.85 3037.5 5581.25 3051.78C5575.65 3065.78 5572.85 3080.76 5572.85 3096.72ZM6066.95 2998.44C6056.59 2993.12 6045.25 2988.5 6032.93 2984.58C6020.61 2980.66 6008.57 2978.7 5996.81 2978.7C5980.57 2978.7 5967.55 2982.48 5957.75 2990.04C5948.23 2997.6 5943.47 3007.68 5943.47 3020.28C5943.47 3029.8 5946.55 3037.92 5952.71 3044.64C5958.87 3051.08 5966.99 3056.68 5977.07 3061.44C5987.15 3066.2 5997.65 3070.68 6008.57 3074.88C6018.09 3078.52 6027.47 3082.58 6036.71 3087.06C6045.95 3091.54 6054.21 3097.14 6061.49 3103.86C6069.05 3110.58 6074.93 3118.84 6079.13 3128.64C6083.61 3138.44 6085.85 3150.62 6085.85 3165.18C6085.85 3181.14 6081.79 3195.7 6073.67 3208.86C6065.83 3222.02 6054.49 3232.38 6039.65 3239.94C6024.81 3247.5 6007.17 3251.28 5986.73 3251.28C5973.29 3251.28 5960.41 3249.74 5948.09 3246.66C5936.05 3243.58 5924.85 3239.66 5914.49 3234.9C5904.13 3229.86 5894.89 3224.68 5886.77 3219.36L5904.83 3187.44C5911.55 3192.2 5919.25 3196.82 5927.93 3201.3C5936.61 3205.5 5945.71 3209 5955.23 3211.8C5964.75 3214.32 5973.99 3215.58 5982.95 3215.58C5992.47 3215.58 6001.85 3213.9 6011.09 3210.54C6020.61 3206.9 6028.45 3201.44 6034.61 3194.16C6040.77 3186.88 6043.85 3177.22 6043.85 3165.18C6043.85 3154.82 6041.05 3146.28 6035.45 3139.56C6030.13 3132.56 6022.99 3126.68 6014.03 3121.92C6005.07 3116.88 5995.55 3112.4 5985.47 3108.48C5975.95 3104.84 5966.29 3100.92 5956.49 3096.72C5946.69 3092.24 5937.59 3086.92 5929.19 3080.76C5920.79 3074.32 5914.07 3066.48 5909.03 3057.24C5903.99 3048 5901.47 3036.8 5901.47 3023.64C5901.47 3007.68 5905.25 2993.82 5912.81 2982.06C5920.65 2970.02 5931.29 2960.64 5944.73 2953.92C5958.17 2946.92 5973.57 2943.14 5990.93 2942.58C6010.53 2942.58 6027.75 2944.96 6042.59 2949.72C6057.71 2954.48 6071.01 2960.36 6082.49 2967.36L6066.95 2998.44Z" fill="white"/>
<path d="M2578.32 1521.59C2545.21 1488.69 2530.86 1447.36 2534.43 1395.2C2534.48 1394.66 2534.49 1394.07 2534.49 1393.51C2534.45 1390.23 2538.27 1068.58 3131.19 877.063C3116.89 911.326 3104.68 945.995 3094.81 980.356C3082.62 1023.12 3074.46 1064.76 3070.54 1104.02C3068.53 1123.55 3067.67 1144.09 3067.92 1167.03C3068.32 1186.78 3070.17 1207.6 3073.4 1228.94C3074.94 1239.07 3083.42 1245.89 3092.9 1244.59C3102.38 1243.29 3109.73 1234.37 3109.79 1224.01C3109.89 1203.98 3111.1 1185.6 3113.46 1168.01C3116.41 1147.58 3119.96 1129.52 3124.34 1112.72C3133.15 1078.57 3145.99 1042.98 3162.48 1007.05C3177.84 973.795 3195.98 940.672 3216.35 908.601C3226.25 892.995 3236.76 877.486 3247.5 862.589C3252.01 856.428 3257.94 848.347 3264.02 840.576C3264.51 839.932 3265 839.289 3265.5 838.667C3317.63 825.536 3372.82 813.542 3429.76 802.974C3428.19 806.442 3426.69 809.83 3425.23 813.168C3408.14 852.314 3393.74 892.1 3382.41 931.499C3370.24 974.264 3362.08 1015.9 3358.16 1055.16C3356.13 1074.69 3355.28 1095.23 3355.53 1118.18C3355.94 1137.92 3357.79 1158.74 3361.02 1180.08C3362.54 1190.21 3371.04 1197.03 3380.51 1195.73C3390 1194.43 3397.33 1185.51 3397.4 1175.16C3397.52 1155.12 3398.71 1136.74 3401.08 1119.15C3404.01 1098.73 3407.58 1080.66 3411.96 1063.86C3420.76 1029.71 3433.59 994.127 3450.1 958.191C3465.47 924.933 3483.59 891.814 3503.96 859.743C3513.86 844.137 3524.38 828.628 3535.11 813.731C3539.62 807.57 3545.55 799.489 3551.61 791.721C3553.24 789.631 3554.87 787.541 3556.5 785.495C3617.86 778.631 3677.03 774.31 3732.9 772.655C3718.16 807.685 3705.62 843.148 3695.52 878.31C3683.33 921.079 3675.16 962.716 3671.25 1001.97C3669.24 1021.5 3668.39 1042.04 3668.63 1064.99C3669.03 1084.73 3670.87 1105.55 3674.12 1126.89C3675.65 1137.02 3684.12 1143.84 3693.62 1142.54C3703.15 1141.24 3710.44 1132.32 3710.51 1121.97C3710.6 1101.94 3711.82 1083.55 3714.17 1065.96C3717.12 1045.54 3720.66 1027.47 3725.06 1010.67C3733.86 976.518 3746.7 940.938 3763.19 905.006C3778.56 871.748 3796.67 838.628 3817.07 806.554C3824.03 795.567 3831.59 784.231 3839.61 772.772C4113 782.116 4258.33 862.509 4332.23 928.731C4412.05 1000.22 4427.57 1070.76 4427.84 1071.97C4427.93 1072.49 4428.07 1073 4428.2 1073.5C4442.08 1122.69 4436.49 1167.41 4411.08 1210.25C4367.97 1282.97 4221.51 1416.53 3724.68 1500.93C3718.05 1502.05 3711.27 1503.18 3704.51 1504.29C3640.63 1514.78 3576.33 1525.5 3512.03 1536.43C3447.75 1547.34 3383.48 1558.47 3319.68 1569.66C2807.22 1659.74 2635.26 1578.18 2578.32 1521.59ZM3323.87 1609.02C3451.35 1586.6 3580.7 1564.63 3708.32 1543.71C3714.2 1542.74 3720.22 1541.73 3726.39 1540.69C3834.72 1522.28 3985.35 1491.01 4120.35 1442.94C4284.74 1384.36 4392.82 1312.99 4441.58 1230.75C4472.86 1178.02 4480.21 1120.87 4463.45 1060.88C4461.3 1051.13 4442.57 976.071 4359.03 899.979C4244.29 795.453 4067.17 739.152 3832.63 732.633C3826.63 732.465 3820.82 735.513 3817.05 740.787C3806.36 755.744 3796.34 770.609 3787.24 784.959C3765.85 818.613 3746.8 853.413 3730.6 888.49C3730.48 888.757 3730.36 889.001 3730.25 889.267C3730.31 889.033 3730.38 888.774 3730.44 888.54C3741.22 851.048 3754.95 813.076 3771.27 775.695C3772.87 772.066 3774.53 768.448 3776.19 764.831L3778.27 760.268C3781.1 754.08 3780.88 746.863 3777.7 741.181C3774.51 735.477 3768.8 732.081 3762.56 732.179C3695.16 733.108 3622.61 738 3546.93 746.714C3542.24 747.242 3537.84 749.714 3534.61 753.642L3533.01 755.593C3530.03 759.256 3527.04 763.032 3524.13 766.795C3517.72 775.002 3511.52 783.443 3506.78 789.957C3495.48 805.6 3484.5 821.814 3474.13 838.148C3452.74 871.802 3433.7 906.602 3417.5 941.679C3417.38 941.946 3417.26 942.19 3417.14 942.456C3417.22 942.219 3417.28 941.963 3417.36 941.726C3428.11 904.237 3441.85 866.265 3458.19 828.881C3463.77 816.045 3470.23 802.21 3477.88 786.628C3481.14 780.008 3480.84 772.157 3477.15 766.202C3473.43 760.229 3466.93 757.125 3460.18 758.115C3451.37 759.41 3442.5 760.76 3433.52 762.174C3433.37 762.177 3433.23 762.201 3433.09 762.247C3370.4 773.703 3309.7 786.878 3252.67 801.425C3248.73 802.429 3245.14 804.786 3242.46 808.151L3241.54 809.27C3239.85 811.393 3238.17 813.515 3236.52 815.653C3230.09 823.864 3223.89 832.304 3219.17 838.815C3207.87 854.458 3196.87 870.675 3186.52 887.006C3165.13 920.66 3146.08 955.461 3129.89 990.537C3129.77 990.804 3129.64 991.048 3129.53 991.315C3129.6 991.079 3129.67 990.821 3129.74 990.585C3140.51 953.094 3154.24 915.122 3170.57 877.739C3174.3 869.181 3178.18 860.776 3181.14 854.431C3184.42 847.382 3183.74 839.058 3179.35 833.155C3174.98 827.248 3167.74 824.807 3160.77 826.886C3010.29 872.171 2881.98 929.652 2779.38 997.718C2696.5 1052.7 2630 1114.77 2581.71 1182.18C2501.49 1294.17 2497.98 1383.86 2497.86 1394.79C2493.67 1458.34 2512.2 1511.09 2552.95 1551.58C2616.49 1614.75 2735.18 1647.6 2905.7 1649.28C3053.7 1650.71 3214.81 1628.15 3323.87 1609.02Z" fill="#BE7950" fill-opacity="0.24"/>
<path d="M2609.85 1551.52C2576.74 1518.61 2562.39 1477.29 2565.96 1425.12C2566 1424.58 2566.02 1424 2566.01 1423.44C2565.98 1420.15 2569.8 1098.51 3162.72 906.987C3148.42 941.249 3136.21 975.918 3126.33 1010.28C3114.15 1053.05 3105.98 1094.68 3102.07 1133.94C3100.05 1153.47 3099.2 1174.01 3099.45 1196.96C3099.85 1216.7 3101.69 1237.52 3104.93 1258.86C3106.46 1268.99 3114.94 1275.81 3124.43 1274.51C3133.91 1273.22 3141.26 1264.29 3141.31 1253.94C3141.42 1233.91 3142.63 1215.52 3144.99 1197.93C3147.93 1177.51 3151.48 1159.44 3155.87 1142.65C3164.67 1108.49 3177.51 1072.91 3194.01 1036.97C3209.37 1003.72 3227.5 970.595 3247.88 938.524C3257.78 922.918 3268.29 907.41 3279.03 892.512C3283.54 886.351 3289.46 878.27 3295.55 870.499C3296.04 869.856 3296.53 869.212 3297.03 868.591C3349.16 855.459 3404.34 843.466 3461.29 832.897C3459.71 836.365 3458.22 839.754 3456.76 843.091C3439.67 882.238 3425.27 922.023 3413.94 961.422C3401.77 1004.19 3393.61 1045.82 3389.69 1085.08C3387.66 1104.61 3386.81 1125.15 3387.05 1148.1C3387.47 1167.84 3389.32 1188.66 3392.54 1210.01C3394.07 1220.13 3402.57 1226.95 3412.04 1225.66C3421.53 1224.36 3428.86 1215.43 3428.93 1205.08C3429.04 1185.05 3430.24 1166.67 3432.61 1149.07C3435.54 1128.65 3439.1 1110.58 3443.48 1093.79C3452.28 1059.63 3465.12 1024.05 3481.63 988.115C3497 954.857 3515.11 921.737 3535.49 889.666C3545.39 874.06 3555.9 858.552 3566.64 843.654C3571.15 837.493 3577.07 829.412 3583.14 821.645C3584.77 819.554 3586.4 817.464 3588.03 815.418C3649.39 808.555 3708.56 804.233 3764.42 802.579C3749.69 837.609 3737.15 873.072 3727.04 908.233C3714.86 951.002 3706.69 992.639 3702.78 1031.9C3700.77 1051.42 3699.92 1071.96 3700.16 1094.91C3700.55 1114.66 3702.4 1135.47 3705.65 1156.82C3707.18 1166.94 3715.65 1173.77 3725.15 1172.47C3734.68 1171.16 3741.97 1162.24 3742.03 1151.89C3742.13 1131.86 3743.34 1113.48 3745.69 1095.88C3748.65 1075.46 3752.19 1057.4 3756.59 1040.6C3765.39 1006.44 3778.23 970.861 3794.71 934.929C3810.08 901.671 3828.2 868.551 3848.6 836.477C3855.55 825.49 3863.11 814.154 3871.14 802.695C4144.53 812.039 4289.86 892.432 4363.76 958.654C4443.58 1030.14 4459.1 1100.68 4459.36 1101.89C4459.46 1102.41 4459.59 1102.93 4459.73 1103.42C4473.61 1152.62 4468.01 1197.33 4442.61 1240.18C4399.5 1312.89 4253.03 1446.45 3756.21 1530.85C3749.58 1531.98 3742.8 1533.11 3736.04 1534.21C3672.15 1544.71 3607.86 1555.43 3543.56 1566.35C3479.28 1577.27 3415 1588.39 3351.21 1599.58C2838.75 1689.66 2666.79 1608.11 2609.85 1551.52ZM3355.4 1638.94C3482.88 1616.53 3612.23 1594.55 3739.84 1573.64C3745.73 1572.66 3751.75 1571.66 3757.92 1570.61C3866.25 1552.21 4016.88 1520.93 4151.87 1472.86C4316.27 1414.29 4424.35 1342.92 4473.11 1260.67C4504.39 1207.94 4511.74 1150.8 4494.98 1090.81C4492.83 1081.05 4474.1 1005.99 4390.56 929.903C4275.81 825.376 4098.7 769.075 3864.16 762.556C3858.16 762.389 3852.34 765.436 3848.57 770.71C3837.88 785.667 3827.87 800.532 3818.77 814.882C3797.37 848.537 3778.33 883.336 3762.13 918.414C3762.01 918.68 3761.89 918.924 3761.77 919.191C3761.83 918.957 3761.91 918.697 3761.97 918.463C3772.75 880.971 3786.48 843 3802.8 805.619C3804.4 801.989 3806.06 798.372 3807.72 794.754L3809.8 790.192C3812.63 784.003 3812.41 776.787 3809.22 771.105C3806.04 765.4 3800.33 762.005 3794.09 762.102C3726.68 763.031 3654.13 767.923 3578.46 776.638C3573.77 777.165 3569.36 779.637 3566.14 783.565L3564.54 785.516C3561.56 789.179 3558.57 792.956 3555.66 796.718C3549.25 804.926 3543.05 813.366 3538.31 819.88C3527 835.523 3516.03 851.737 3505.66 868.071C3484.27 901.726 3465.22 936.525 3449.02 971.603C3448.91 971.869 3448.79 972.113 3448.67 972.38C3448.75 972.142 3448.8 971.886 3448.88 971.649C3459.64 934.16 3473.37 896.189 3489.71 858.804C3495.3 845.968 3501.76 832.133 3509.41 816.552C3512.67 809.931 3512.36 802.08 3508.67 796.125C3504.96 790.152 3498.46 787.049 3491.71 788.039C3482.9 789.334 3474.03 790.683 3465.04 792.098C3464.9 792.1 3464.76 792.124 3464.62 792.17C3401.93 803.626 3341.23 816.802 3284.19 831.349C3280.26 832.353 3276.67 834.709 3273.99 838.074L3273.07 839.193C3271.38 841.316 3269.69 843.438 3268.05 845.576C3261.62 853.787 3255.42 862.228 3250.7 868.738C3239.39 884.381 3228.4 900.599 3218.05 916.929C3196.66 950.583 3177.61 985.384 3161.41 1020.46C3161.29 1020.73 3161.17 1020.97 3161.05 1021.24C3161.12 1021 3161.19 1020.74 3161.26 1020.51C3172.03 983.017 3185.77 945.046 3202.1 907.662C3205.83 899.105 3209.71 890.699 3212.67 884.354C3215.95 877.305 3215.26 868.981 3210.88 863.078C3206.51 857.172 3199.26 854.731 3192.3 856.81C3041.82 902.094 2913.5 959.576 2810.91 1027.64C2728.03 1082.62 2661.52 1144.69 2613.23 1212.1C2533.02 1324.09 2529.51 1413.79 2529.39 1424.71C2525.2 1488.26 2543.73 1541.01 2584.47 1581.5C2648.02 1644.67 2766.7 1677.52 2937.22 1679.2C3085.23 1680.63 3246.34 1658.07 3355.4 1638.94Z" fill="#BE7950"/>
<path d="M3349.36 624.389C3357.81 617.089 3367.18 610.259 3376.93 601.976C3386.74 593.817 3396.83 583.328 3405.2 570.623L3408.27 565.781C3409.29 564.154 3410.34 562.541 3411.11 560.754L3416.08 550.194C3417.75 546.664 3418.68 542.948 3419.97 539.304C3421.12 535.616 3422.53 531.907 3423.11 528.249C3424.53 520.911 3426.37 513.525 3426.7 505.992L3427.6 494.69L3427.18 483.009L3426.89 477.148L3425.96 471.283C3425.26 467.396 3424.77 463.427 3423.75 459.639C3422.7 455.877 3421.55 452.11 3420.38 448.368C3419.18 444.677 3417.54 441.352 3416.1 437.835C3409.94 424.197 3402.31 412.89 3395.57 403.178C3388.86 393.638 3383.27 385.298 3379.25 377.273C3378.36 375.275 3377.15 373.331 3376.45 371.324C3375.75 369.294 3375.05 367.286 3374.25 365.318C3373.52 363.292 3373.24 361.146 3372.66 359.074L3371.84 355.922L3371.46 352.562L3370.56 345.818L3370.51 338.53C3370.15 333.621 3370.92 328.767 3371.2 323.794C3371.23 321.237 3371.86 319.027 3372.26 316.675C3372.75 314.375 3372.93 311.882 3373.62 309.683L3375.6 302.922C3376.19 300.627 3377.37 298.569 3378.2 296.302C3381.93 287.452 3387.31 278.68 3394.38 269.376C3401.36 260.064 3409.45 250.049 3416.87 238.76C3418.66 235.814 3420.46 232.978 3422.17 230.002C3423.77 226.886 3425.39 223.814 3426.87 220.696C3428.4 217.616 3429.43 214.149 3430.68 210.96C3431.26 209.317 3431.93 207.726 3432.4 206.079L3433.58 201.02C3437.16 187.742 3436.86 174.226 3435.53 161.737C3430.77 173.805 3426.43 185.222 3419.69 194.694C3413.26 204.293 3406.04 212.258 3397.41 219.388C3388.96 226.689 3379.59 233.518 3369.84 241.801C3360.05 249.956 3349.92 260.453 3341.56 273.154C3339.58 276.424 3337.27 279.526 3335.64 283.049L3330.65 293.612C3329 297.16 3328.07 300.855 3326.79 304.52C3325.63 308.187 3324.23 311.917 3323.65 315.575C3322.2 322.917 3320.38 330.3 3320.06 337.855L3319.16 349.156L3319.58 360.837L3319.86 366.699L3320.79 372.563C3321.52 376.425 3322 380.416 3323.01 384.207C3324.06 387.97 3325.23 391.733 3326.39 395.475C3327.6 399.188 3329.22 402.494 3330.67 406.03C3336.84 419.646 3344.47 430.953 3351.23 440.662C3357.96 450.198 3363.54 458.516 3367.59 466.538C3368.47 468.536 3369.69 470.501 3370.39 472.509C3371.07 474.542 3371.81 476.521 3372.61 478.511C3373.34 480.537 3373.6 482.687 3374.2 484.756L3375.02 487.908L3375.4 491.268C3375.67 493.505 3375.96 495.762 3376.3 498.033L3376.37 505.317C3376.73 510.205 3375.98 515.078 3375.68 520.054C3375.65 522.611 3375.02 524.821 3374.65 527.191C3374.13 529.473 3373.95 531.966 3373.27 534.186L3371.28 540.948C3370.71 543.261 3369.53 545.297 3368.71 547.564C3364.95 556.44 3359.55 565.193 3352.51 574.537C3345.51 583.831 3337.42 593.824 3330.02 605.132C3322.54 616.297 3316.39 629.519 3313.28 642.831C3309.68 656.113 3309.96 669.609 3311.29 682.098C3316.02 670.012 3320.36 658.596 3327.08 649.127C3333.51 639.505 3340.73 631.519 3349.36 624.389Z" fill="#BE7950" fill-opacity="0.17"/>
<path d="M3638.71 575.235C3647.14 567.939 3656.53 561.106 3666.28 552.822C3676.07 544.667 3686.18 534.174 3694.54 521.473L3697.6 516.631C3698.64 515 3699.68 513.391 3700.45 511.604L3705.44 501.041C3707.09 497.514 3708.01 493.798 3709.3 490.154C3710.45 486.466 3711.86 482.758 3712.44 479.1C3713.86 471.761 3715.7 464.375 3716.03 456.842L3716.93 445.54L3716.53 433.856L3716.22 427.998L3715.32 422.13C3714.59 418.246 3714.1 414.277 3713.1 410.486C3712.03 406.727 3710.9 402.956 3709.71 399.218C3708.51 395.527 3706.89 392.199 3705.44 388.685C3699.29 375.044 3691.64 363.74 3684.92 354.024C3678.19 344.489 3672.6 336.148 3668.6 328.12C3667.69 326.125 3666.5 324.178 3665.78 322.174C3665.1 320.141 3664.4 318.133 3663.6 316.165C3662.85 314.142 3662.59 311.993 3662.01 309.92L3661.19 306.768L3660.81 303.408L3659.92 296.665L3659.84 289.38C3659.48 284.471 3660.25 279.617 3660.53 274.644C3660.58 272.084 3661.21 269.873 3661.59 267.525C3662.08 265.225 3662.26 262.732 3662.97 260.53L3664.93 253.772C3665.52 251.477 3666.7 249.419 3667.53 247.152C3671.28 238.298 3676.64 229.53 3683.71 220.226C3690.69 210.914 3698.8 200.896 3706.2 189.61C3707.99 186.664 3709.81 183.825 3711.52 180.849C3713.11 177.736 3714.74 174.66 3716.22 171.543C3717.73 168.466 3718.78 164.996 3720.03 161.806C3720.61 160.163 3721.26 158.576 3721.75 156.925L3722.91 151.87C3726.51 138.588 3726.21 125.073 3724.88 112.584C3720.11 124.656 3715.76 136.072 3709.02 145.544C3702.61 155.14 3695.37 163.109 3686.74 170.238C3678.31 177.535 3668.92 184.368 3659.17 192.651C3649.38 200.806 3639.25 211.303 3630.9 224.004C3628.93 227.271 3626.6 230.376 3624.99 233.895L3620 244.458C3618.33 248.01 3617.42 251.701 3616.12 255.37C3614.96 259.037 3613.56 262.767 3612.98 266.425C3611.55 273.764 3609.74 281.146 3609.39 288.705L3608.51 300.003L3608.91 311.687L3609.19 317.549L3610.14 323.409C3610.85 327.275 3611.34 331.266 3612.34 335.057C3613.41 338.816 3614.56 342.584 3615.74 346.322C3616.93 350.038 3618.57 353.341 3620 356.88C3626.17 370.496 3633.82 381.8 3640.56 391.512C3647.29 401.048 3652.89 409.363 3656.92 417.388C3657.82 419.383 3659.02 421.352 3659.74 423.356C3660.42 425.389 3661.14 427.371 3661.94 429.361C3662.67 431.387 3662.95 433.533 3663.53 435.606L3664.37 438.754L3664.73 442.118C3665 444.355 3665.29 446.612 3665.63 448.883L3665.7 456.168C3666.06 461.055 3665.31 465.928 3665.03 470.9C3664.98 473.461 3664.38 475.668 3663.98 478.042C3663.48 480.319 3663.3 482.812 3662.62 485.033L3660.63 491.794C3660.04 494.111 3658.86 496.148 3658.04 498.414C3654.3 507.287 3648.88 516.043 3641.84 525.387C3634.86 534.677 3626.75 544.674 3619.35 555.982C3611.87 567.147 3605.72 580.369 3602.61 593.681C3599.01 606.963 3599.31 620.456 3600.62 632.949C3605.35 620.862 3609.7 609.446 3616.43 599.974C3622.84 590.356 3630.06 582.369 3638.71 575.235Z" fill="#BE7950" fill-opacity="0.17"/>
<path d="M3924.4 526.704C3932.85 519.403 3942.21 512.574 3951.97 504.291C3961.78 496.132 3971.87 485.643 3980.24 472.938L3983.31 468.096C3984.33 466.469 3985.38 464.856 3986.15 463.069L3991.12 452.509C3992.79 448.979 3993.72 445.263 3995 441.619C3996.16 437.931 3997.56 434.222 3998.14 430.564C3999.57 423.226 4001.41 415.84 4001.74 408.306L4002.64 397.005L4002.22 385.324L4001.93 379.463L4001 373.598C4000.3 369.711 3999.81 365.742 3998.78 361.954C3997.74 358.192 3996.59 354.425 3995.4 350.686C3994.22 346.992 3992.58 343.667 3991.14 340.15C3984.97 326.512 3977.35 315.205 3970.6 305.493C3963.9 295.953 3958.31 287.613 3954.29 279.588C3953.4 277.59 3952.19 275.646 3951.49 273.639C3950.79 271.609 3950.08 269.601 3949.28 267.633C3948.56 265.607 3948.28 263.461 3947.7 261.388L3946.88 258.237L3946.5 254.877L3945.6 248.133L3945.55 240.845C3945.19 235.936 3945.96 231.082 3946.24 226.109C3946.27 223.552 3946.89 221.342 3947.3 218.99C3947.79 216.69 3947.97 214.197 3948.66 211.998L3950.64 205.237C3951.23 202.942 3952.41 200.884 3953.24 198.617C3956.99 189.763 3962.35 180.995 3969.42 171.691C3976.4 162.379 3984.49 152.364 3991.91 141.075C3993.7 138.129 3995.5 135.293 3997.21 132.317C3998.81 129.201 4000.43 126.129 4001.91 123.011C4003.44 119.931 4004.47 116.464 4005.72 113.275C4006.3 111.632 4006.97 110.041 4007.44 108.394L4008.62 103.335C4012.2 90.0568 4011.9 76.5415 4010.57 64.0525C4005.81 76.1204 4001.47 87.5367 3994.73 97.0087C3988.3 106.608 3981.08 114.573 3972.45 121.703C3964 129.004 3954.63 135.833 3944.88 144.116C3935.09 152.271 3924.94 162.771 3916.6 175.469C3914.62 178.739 3912.3 181.841 3910.68 185.364L3905.69 195.927C3904.04 199.475 3903.11 203.17 3901.83 206.835C3900.67 210.502 3899.27 214.232 3898.69 217.89C3897.24 225.232 3895.42 232.615 3895.1 240.17L3894.2 251.471L3894.62 263.152L3894.9 269.014L3895.83 274.878C3896.55 278.74 3897.04 282.731 3898.05 286.522C3899.09 290.285 3900.26 294.048 3901.43 297.79C3902.64 301.503 3904.28 304.806 3905.71 308.345C3911.88 321.961 3919.51 333.268 3926.27 342.977C3932.99 352.512 3938.58 360.831 3942.63 368.852C3943.51 370.851 3944.73 372.816 3945.43 374.824C3946.11 376.857 3946.85 378.836 3947.65 380.826C3948.38 382.852 3948.64 385.002 3949.24 387.071L3950.06 390.223L3950.44 393.583C3950.71 395.82 3951 398.077 3951.33 400.348L3951.41 407.632C3951.77 412.52 3951.02 417.393 3950.72 422.369C3950.69 424.926 3950.06 427.136 3949.68 429.506C3949.17 431.787 3948.99 434.281 3948.3 436.501L3946.32 443.263C3945.75 445.576 3944.57 447.612 3943.75 449.879C3939.99 458.755 3934.59 467.508 3927.55 476.852C3920.55 486.146 3912.45 496.139 3905.06 507.447C3897.58 518.612 3891.43 531.834 3888.32 545.146C3884.72 558.428 3884.99 571.924 3886.33 584.413C3891.06 572.327 3895.4 560.911 3902.12 551.442C3908.55 541.82 3915.77 533.834 3924.4 526.704Z" fill="#BE7950" fill-opacity="0.17"/>
<path d="M3349.59 673.251C3358.04 665.951 3367.4 659.121 3377.16 650.838C3386.97 642.679 3397.06 632.19 3405.43 619.485L3408.5 614.643C3409.51 613.016 3410.57 611.403 3411.34 609.616L3416.31 599.056C3417.98 595.526 3418.91 591.81 3420.19 588.166C3421.35 584.478 3422.75 580.769 3423.33 577.112C3424.76 569.773 3426.6 562.387 3426.93 554.854L3427.83 543.552L3427.4 531.871L3427.12 526.01L3426.19 520.146C3425.49 516.258 3425 512.289 3423.97 508.501C3422.93 504.739 3421.78 500.972 3420.61 497.23C3419.41 493.539 3417.77 490.214 3416.33 486.697C3410.16 473.059 3402.53 461.752 3395.79 452.04C3389.09 442.5 3383.5 434.16 3379.48 426.135C3378.59 424.137 3377.38 422.193 3376.68 420.186C3375.97 418.156 3375.27 416.149 3374.47 414.18C3373.75 412.154 3373.47 410.008 3372.88 407.936L3372.07 404.784L3371.68 401.424L3370.79 394.68L3370.73 387.392C3370.38 382.483 3371.15 377.629 3371.43 372.656C3371.46 370.099 3372.08 367.889 3372.48 365.537C3372.98 363.237 3373.16 360.744 3373.84 358.545L3375.83 351.784C3376.42 349.489 3377.6 347.431 3378.42 345.164C3382.16 336.314 3387.54 327.542 3394.6 318.238C3401.58 308.926 3409.67 298.911 3417.09 287.622C3418.89 284.676 3420.69 281.84 3422.39 278.864C3424 275.748 3425.61 272.676 3427.1 269.558C3428.63 266.478 3429.66 263.011 3430.91 259.822C3431.49 258.179 3432.15 256.588 3432.63 254.941L3433.81 249.882C3437.39 236.604 3437.09 223.089 3435.76 210.6C3431 222.667 3426.66 234.084 3419.92 243.556C3413.49 253.156 3406.26 261.121 3397.63 268.25C3389.19 275.551 3379.82 282.38 3370.07 290.663C3360.28 298.818 3350.15 309.315 3341.79 322.016C3339.81 325.286 3337.49 328.388 3335.86 331.911L3330.87 342.474C3329.23 346.022 3328.3 349.717 3327.01 353.382C3325.86 357.049 3324.46 360.779 3323.87 364.437C3322.43 371.779 3320.61 379.162 3320.28 386.717L3319.38 398.018L3319.81 409.699L3320.09 415.561L3321.02 421.425C3321.74 425.287 3322.23 429.278 3323.24 433.069C3324.28 436.832 3325.45 440.595 3326.62 444.337C3327.82 448.05 3329.44 451.356 3330.9 454.892C3337.07 468.508 3344.7 479.815 3351.46 489.524C3358.18 499.06 3363.77 507.378 3367.81 515.4C3368.7 517.398 3369.91 519.363 3370.61 521.371C3371.3 523.404 3372.04 525.383 3372.84 527.373C3373.56 529.399 3373.82 531.549 3374.43 533.618L3375.24 536.77L3375.63 540.13C3375.9 542.367 3376.19 544.624 3376.52 546.895L3376.6 554.18C3376.95 559.067 3376.21 563.94 3375.91 568.916C3375.88 571.473 3375.25 573.683 3374.87 576.054C3374.36 578.335 3374.18 580.828 3373.49 583.048L3371.51 589.81C3370.94 592.123 3369.76 594.16 3368.93 596.426C3365.18 605.302 3359.78 614.055 3352.74 623.399C3345.73 632.693 3337.64 642.686 3330.24 653.994C3322.77 665.159 3316.62 678.381 3313.5 691.693C3309.91 704.975 3310.18 718.472 3311.51 730.961C3316.25 718.874 3320.59 707.458 3327.31 697.989C3333.74 688.368 3340.96 680.381 3349.59 673.251Z" fill="#BE7950" fill-opacity="0.48"/>
<path d="M3638.94 624.098C3647.37 616.801 3656.75 609.968 3666.51 601.685C3676.3 593.53 3686.41 583.037 3694.76 570.335L3697.83 565.493C3698.86 563.863 3699.9 562.254 3700.67 560.466L3705.66 549.903C3707.31 546.377 3708.24 542.66 3709.52 539.017C3710.68 535.328 3712.08 531.62 3712.66 527.962C3714.09 520.623 3715.93 513.237 3716.26 505.704L3717.16 494.403L3716.75 482.718L3716.45 476.86L3715.54 470.992C3714.82 467.109 3714.33 463.14 3713.32 459.348C3712.26 455.589 3711.13 451.819 3709.94 448.08C3708.74 444.39 3707.12 441.061 3705.66 437.547C3699.51 423.906 3691.86 412.602 3685.14 402.887C3678.42 393.351 3672.83 385.01 3668.83 376.982C3667.92 374.987 3666.73 373.04 3666.01 371.036C3665.32 369.003 3664.62 366.995 3663.82 365.027C3663.08 363.004 3662.82 360.855 3662.24 358.782L3661.42 355.63L3661.03 352.271L3660.14 345.527L3660.06 338.243C3659.71 333.333 3660.48 328.479 3660.76 323.506C3660.81 320.946 3661.43 318.736 3661.82 316.387C3662.31 314.088 3662.49 311.594 3663.19 309.392L3665.16 302.634C3665.75 300.339 3666.93 298.281 3667.75 296.014C3671.51 287.161 3676.87 278.393 3683.93 269.089C3690.91 259.777 3699.02 249.758 3706.43 238.472C3708.22 235.526 3710.04 232.687 3711.74 229.711C3713.33 226.598 3714.96 223.523 3716.45 220.405C3717.96 217.328 3719.01 213.858 3720.26 210.669C3720.84 209.026 3721.48 207.439 3721.98 205.788L3723.14 200.732C3726.74 187.451 3726.44 173.935 3725.11 161.446C3720.33 173.518 3715.99 184.934 3709.25 194.406C3702.84 204.002 3695.6 211.971 3686.96 219.101C3678.54 226.398 3669.15 233.23 3659.4 241.514C3649.61 249.669 3639.48 260.165 3631.12 272.867C3629.16 276.133 3626.82 279.238 3625.21 282.758L3620.22 293.321C3618.56 296.872 3617.65 300.564 3616.35 304.233C3615.19 307.899 3613.79 311.63 3613.21 315.288C3611.78 322.626 3609.96 330.009 3609.61 337.567L3608.73 348.865L3609.14 360.55L3609.42 366.411L3610.37 372.272C3611.07 376.137 3611.56 380.128 3612.57 383.92C3613.63 387.679 3614.78 391.446 3615.97 395.184C3617.16 398.9 3618.8 402.203 3620.23 405.743C3626.4 419.358 3634.05 430.662 3640.79 440.374C3647.51 449.91 3653.12 458.225 3657.14 466.25C3658.05 468.245 3659.24 470.214 3659.97 472.218C3660.65 474.251 3661.37 476.233 3662.17 478.223C3662.89 480.25 3663.17 482.396 3663.76 484.468L3664.6 487.617L3664.96 490.98C3665.23 493.218 3665.52 495.474 3665.85 497.745L3665.93 505.03C3666.28 509.917 3665.54 514.79 3665.26 519.763C3665.21 522.323 3664.6 524.53 3664.2 526.904C3663.71 529.181 3663.53 531.674 3662.84 533.895L3660.86 540.657C3660.27 542.974 3659.09 545.01 3658.26 547.277C3654.53 556.149 3649.11 564.905 3642.07 574.25C3635.08 583.54 3626.97 593.536 3619.57 604.845C3612.1 616.009 3605.95 629.232 3602.83 642.544C3599.24 655.825 3599.53 669.318 3600.84 681.811C3605.58 669.724 3609.92 658.308 3616.66 648.836C3623.07 639.218 3630.29 631.231 3638.94 624.098Z" fill="#BE7950" fill-opacity="0.48"/>
<path d="M3924.63 575.566C3933.08 568.266 3942.44 561.436 3952.2 553.153C3962.01 544.995 3972.1 534.505 3980.47 521.8L3983.54 516.958C3984.55 515.331 3985.61 513.719 3986.38 511.931L3991.35 501.371C3993.02 497.842 3993.95 494.125 3995.23 490.482C3996.39 486.793 3997.79 483.085 3998.37 479.427C3999.8 472.088 4001.63 464.702 4001.97 457.169L4002.87 445.868L4002.44 434.187L4002.16 428.325L4001.23 422.461C4000.52 418.574 4000.04 414.604 3999.01 410.817C3997.97 407.054 3996.82 403.287 3995.63 399.549C3994.45 395.854 3992.8 392.529 3991.37 389.012C3985.2 375.375 3977.57 364.067 3970.83 354.355C3964.13 344.816 3958.54 336.475 3954.51 328.45C3953.63 326.452 3952.42 324.509 3951.72 322.501C3951.01 320.471 3950.31 318.464 3949.51 316.495C3948.79 314.469 3948.51 312.323 3947.92 310.251L3947.11 307.099L3946.72 303.739L3945.83 296.995L3945.77 289.708C3945.42 284.798 3946.19 279.944 3946.47 274.971C3946.5 272.414 3947.12 270.204 3947.52 267.852C3948.01 265.553 3948.2 263.059 3948.88 260.861L3950.86 254.099C3951.46 251.804 3952.64 249.746 3953.46 247.479C3957.22 238.625 3962.58 229.857 3969.64 220.554C3976.62 211.242 3984.71 201.226 3992.13 189.937C3993.92 186.991 3995.73 184.155 3997.43 181.179C3999.04 178.063 4000.65 174.991 4002.14 171.873C4003.67 168.793 4004.7 165.326 4005.95 162.137C4006.53 160.494 4007.19 158.903 4007.67 157.256L4008.85 152.197C4012.43 138.919 4012.13 125.404 4010.79 112.915C4006.04 124.983 4001.7 136.399 3994.96 145.871C3988.52 155.471 3981.3 163.436 3972.67 170.566C3964.22 177.866 3954.86 184.695 3945.1 192.979C3935.32 201.134 3925.16 211.633 3916.83 224.332C3914.84 227.601 3912.53 230.703 3910.9 234.226L3905.91 244.789C3904.26 248.337 3903.34 252.032 3902.05 255.698C3900.89 259.364 3899.49 263.094 3898.91 266.752C3897.47 274.095 3895.65 281.477 3895.32 289.032L3894.42 300.333L3894.84 312.014L3895.13 317.876L3896.06 323.74C3896.78 327.602 3897.27 331.593 3898.28 335.384C3899.32 339.147 3900.49 342.911 3901.66 346.652C3902.86 350.365 3904.5 353.668 3905.94 357.208C3912.11 370.823 3919.73 382.13 3926.5 391.839C3933.22 401.375 3938.81 409.694 3942.85 417.715C3943.74 419.713 3944.95 421.679 3945.65 423.686C3946.34 425.719 3947.08 427.698 3947.88 429.688C3948.6 431.715 3948.86 433.864 3949.47 435.933L3950.28 439.085L3950.67 442.445C3950.94 444.683 3951.23 446.939 3951.56 449.21L3951.64 456.495C3951.99 461.382 3951.25 466.255 3950.94 471.231C3950.91 473.788 3950.29 475.998 3949.91 478.369C3949.4 480.65 3949.22 483.143 3948.53 485.363L3946.55 492.125C3945.98 494.438 3944.8 496.475 3943.97 498.742C3940.22 507.617 3934.82 516.37 3927.78 525.715C3920.77 535.008 3912.68 545.001 3905.28 556.31C3897.81 567.474 3891.66 580.697 3888.54 594.009C3884.95 607.29 3885.22 620.787 3886.55 633.276C3891.29 621.189 3895.63 609.773 3902.35 600.304C3908.78 590.683 3916 582.696 3924.63 575.566Z" fill="#BE7950" fill-opacity="0.48"/>
</svg>
